<svg xmlns="http://www.w3.org/2000/svg" xmlns:xlink="http://www.w3.org/1999/xlink" id="exportSvg" width="832" height="623"><defs/><rect width="832" height="623" transform="translate(0, 0)" fill="rgb(255, 255, 255)" style="fill: rgb(255, 255, 255);"/><g><g id="__svelte-dw-svg" clip-path="url(#rect-mask-BhwxdCdnDrqTm4XZuU1yB)"><clipPath id="rect-mask-BhwxdCdnDrqTm4XZuU1yB"><rect x="0" y="0" width="832" height="623"/></clipPath><g id="container-svg container-header-svg datawrapper-ciu0T-1utllut-svg"><text transform="translate(0, 0)"><tspan fill="rgb(0,0,0)" x="0" y="22" style="font-family: Roboto; font-weight: 700; font-stretch: 100%; font-size: 22px;">...decline in Air Pollution-Related Mortalities: A Positive Environmental Shift...</tspan></text></g><g id="chart-svg"><g id="svg-main-svg" clip-path="url(#rect-mask-CL3TnSeVhokYtffrD9gxR)" transform="translate(0, 35)"><clipPath id="rect-mask-CL3TnSeVhokYtffrD9gxR"><rect x="0" y="0" width="832" height="536"/></clipPath><g id="container-svg" transform="translate(26.47656, 56.21875)"><g id="grid-svg below-svg"><g id="y-grid-lines-svg grid-y-svg datawrapper-ciu0T-1fn7900-svg"><line x1="0" x2="805.5234375" y1="0" y2="0" transform="translate(0, 383.96633)" style="fill: none; stroke-width: 1; stroke-linejoin: miter; stroke-linecap: butt; stroke: rgb(231, 231, 231);"/><line x1="0" x2="805.5234375" y1="0" y2="0" transform="translate(0, 308.15142)" style="fill: none; stroke-width: 1; stroke-linejoin: miter; stroke-linecap: butt; stroke: rgb(231, 231, 231);"/><line x1="0" x2="805.5234375" y1="0" y2="0" transform="translate(0, 232.3365)" style="fill: none; stroke-width: 1; stroke-linejoin: miter; stroke-linecap: butt; stroke: rgb(231, 231, 231);"/><line x1="0" x2="805.5234375" y1="0" y2="0" transform="translate(0, 156.52158)" style="fill: none; stroke-width: 1; stroke-linejoin: miter; stroke-linecap: butt; stroke: rgb(231, 231, 231);"/><line x1="0" x2="805.5234375" y1="0" y2="0" transform="translate(0, 80.70666)" style="fill: none; stroke-width: 1; stroke-linejoin: miter; stroke-linecap: butt; stroke: rgb(231, 231, 231);"/><line x1="0" x2="805.5234375" y1="0" y2="0" transform="translate(0, 4.89175)" style="fill: none; stroke-width: 1; stroke-linejoin: miter; stroke-linecap: butt; stroke: rgb(231, 231, 231);"/></g></g><g id="columns-svg"><g id="2000-svg" transform="translate(37.29351, 0)"><rect width="59.6669" height="323.3674679559093" transform="translate(0, 136.41378204409068)" fill="rgb(106,62,0)" id="China-0" style="fill: rgb(106, 62, 0);"/><rect width="59.6669" height="43.678691768091994" transform="translate(0, 92.73509027599873)" fill="rgb(139,83,0)" id="Germany-2" style="fill: rgb(139, 83, 0);"/><rect width="59.6669" height="40.34988619835167" transform="translate(0, 52.38520407764704)" fill="rgb(139,83,0)" id="United States-4" style="fill: rgb(139, 83, 0);"/><rect width="59.6669" height="30.81796020589894" transform="translate(0, 21.567243871748076)" fill="rgb(224,136,0)" id="France-1" style="fill: rgb(224, 136, 0);"/><rect width="59.6669" height="21.567243871748076" transform="translate(0, 0)" fill="rgb(251,176,95)" id="Japan-3" style="fill: rgb(251, 176, 95);"/></g><g id="2005-svg" transform="translate(214.00956, 0)"><rect width="59.6669" height="281.74008978855716" transform="translate(0, 178.04116021144287)" fill="rgb(106,62,0)" id="China-0" style="fill: rgb(106, 62, 0);"/><rect width="59.6669" height="34.084427718116274" transform="translate(0, 143.95673249332657)" fill="rgb(139,83,0)" id="Germany-2" style="fill: rgb(139, 83, 0);"/><rect width="59.6669" height="32.65953487078656" transform="translate(0, 111.29719762254003)" fill="rgb(139,83,0)" id="United States-4" style="fill: rgb(139, 83, 0);"/><rect width="59.6669" height="25.01015392447931" transform="translate(0, 86.28704369806073)" fill="rgb(224,136,0)" id="France-1" style="fill: rgb(224, 136, 0);"/><rect width="59.6669" height="17.91889510526852" transform="translate(0, 68.36814859279224)" fill="rgb(251,176,95)" id="Japan-3" style="fill: rgb(251, 176, 95);"/></g><g id="2010-svg" transform="translate(390.6289, 0)"><rect width="59.6669" height="232.56140940068974" transform="translate(0, 227.21984059931026)" fill="rgb(106,62,0)" id="China-0" style="fill: rgb(106, 62, 0);"/><rect width="59.6669" height="32.47722728827762" transform="translate(0, 194.74261331103264)" fill="rgb(139,83,0)" id="Germany-2" style="fill: rgb(139, 83, 0);"/><rect width="59.6669" height="23.01746345031944" transform="translate(0, 171.7251498607132)" fill="rgb(139,83,0)" id="United States-4" style="fill: rgb(139, 83, 0);"/><rect width="59.6669" height="22.546798379114534" transform="translate(0, 149.1783514815987)" fill="rgb(224,136,0)" id="France-1" style="fill: rgb(224, 136, 0);"/><rect width="59.6669" height="15.00561896634457" transform="translate(0, 134.17273251525413)" fill="rgb(251,176,95)" id="Japan-3" style="fill: rgb(251, 176, 95);"/></g><g id="2015-svg" transform="translate(567.24823, 0)"><rect width="59.6669" height="188.54969757617613" transform="translate(0, 271.23155242382387)" fill="rgb(106,62,0)" id="China-0" style="fill: rgb(106, 62, 0);"/><rect width="59.6669" height="24.252486935298066" transform="translate(0, 246.9790654885258)" fill="rgb(139,83,0)" id="Germany-2" style="fill: rgb(139, 83, 0);"/><rect width="59.6669" height="18.094312628101818" transform="translate(0, 228.884752860424)" fill="rgb(139,83,0)" id="United States-4" style="fill: rgb(139, 83, 0);"/><rect width="59.6669" height="16.43122599019432" transform="translate(0, 212.45352687022967)" fill="rgb(224,136,0)" id="France-1" style="fill: rgb(224, 136, 0);"/><rect width="59.6669" height="15.794192664673744" transform="translate(0, 196.6593342055559)" fill="rgb(251,176,95)" id="Japan-3" style="fill: rgb(251, 176, 95);"/></g><g id="2019-svg" transform="translate(708.56304, 0)"><rect width="59.6669" height="160.61000521303225" transform="translate(0, 299.17124478696775)" fill="rgb(106,62,0)" id="China-0" style="fill: rgb(106, 62, 0);"/><rect width="59.6669" height="21.277200259293465" transform="translate(0, 277.8940445276743)" fill="rgb(139,83,0)" id="Germany-2" style="fill: rgb(139, 83, 0);"/><rect width="59.6669" height="15.999440324830744" transform="translate(0, 261.8946042028435)" fill="rgb(139,83,0)" id="United States-4" style="fill: rgb(139, 83, 0);"/><rect width="59.6669" height="14.169475956363954" transform="translate(0, 247.72512824647953)" fill="rgb(224,136,0)" id="France-1" style="fill: rgb(224, 136, 0);"/><rect width="59.6669" height="15.001913133191522" transform="translate(0, 232.72321511328798)" fill="rgb(251,176,95)" id="Japan-3" style="fill: rgb(251, 176, 95);"/></g></g><g id="overlays-svg"/><g id="grid-svg above-svg"><g id="y-tick-labels-svg grid-y-svg number-axis-svg datawrapper-ciu0T-1p0pqj9-svg" transform="translate(-5, 0)"><text transform="translate(0, 387.96633) translate(-13.73828, 0) translate(13.73828125, 0)" style="text-anchor: end;"><tspan fill="rgb(162, 162, 162)" style="font-family: Roboto; font-weight: 400; font-stretch: 100%; font-size: 12px;" x="0" dominant-baseline="auto" y="0">50</tspan></text><text transform="translate(0, 312.15142) translate(-20.47656, 0) translate(20.4765625, 0)" style="text-anchor: end;"><tspan fill="rgb(162, 162, 162)" style="font-family: Roboto; font-weight: 400; font-stretch: 100%; font-size: 12px;" x="0" dominant-baseline="auto" y="0">100</tspan></text><text transform="translate(0, 236.3365) translate(-20.47656, 0) translate(20.4765625, 0)" style="text-anchor: end;"><tspan fill="rgb(162, 162, 162)" style="font-family: Roboto; font-weight: 400; font-stretch: 100%; font-size: 12px;" x="0" dominant-baseline="auto" y="0">150</tspan></text><text transform="translate(0, 160.52158) translate(-20.47656, 0) translate(20.4765625, 0)" style="text-anchor: end;"><tspan fill="rgb(162, 162, 162)" style="font-family: Roboto; font-weight: 400; font-stretch: 100%; font-size: 12px;" x="0" dominant-baseline="auto" y="0">200</tspan></text><text transform="translate(0, 84.70666) translate(-20.47656, 0) translate(20.4765625, 0)" style="text-anchor: end;"><tspan fill="rgb(162, 162, 162)" style="font-family: Roboto; font-weight: 400; font-stretch: 100%; font-size: 12px;" x="0" dominant-baseline="auto" y="0">250</tspan></text><text transform="translate(0, 8.89175) translate(-20.47656, 0) translate(20.4765625, 0)" style="text-anchor: end;"><tspan fill="rgb(162, 162, 162)" style="font-family: Roboto; font-weight: 400; font-stretch: 100%; font-size: 12px;" x="0" dominant-baseline="auto" y="0">300</tspan></text></g><g id="y-base-lines-svg grid-y-svg datawrapper-ciu0T-1io9s9d-svg"><line x1="805.5234375" x2="0" y1="0" y2="0" transform="translate(0, 459.78125)" style="fill: none; stroke-width: 1; stroke-linejoin: miter; stroke-linecap: square; stroke: rgb(24, 24, 24);"/></g><g id="x-tick-labels-svg grid-x-svg date-axis-svg datawrapper-ciu0T-63wp0p-svg" transform="translate(0, 464.78125)"><text transform="translate(67.12695, 12) translate(-13.60742, 0) translate(13.607421875, 0)" style="text-anchor: middle;"><tspan fill="rgb(116, 116, 116)" style="font-family: Roboto; font-weight: 400; font-stretch: 100%; font-size: 12px;" x="0" dominant-baseline="auto" y="0">2000</tspan></text><text transform="translate(137.83272, 12) translate(-13.60742, 0) translate(13.607421875, 0)" style="text-anchor: middle;"><tspan fill="rgb(116, 116, 116)" style="font-family: Roboto; font-weight: 400; font-stretch: 100%; font-size: 12px;" x="0" dominant-baseline="auto" y="0">2002</tspan></text><text transform="translate(208.44176, 12) translate(-13.60742, 0) translate(13.607421875, 0)" style="text-anchor: middle;"><tspan fill="rgb(116, 116, 116)" style="font-family: Roboto; font-weight: 400; font-stretch: 100%; font-size: 12px;" x="0" dominant-baseline="auto" y="0">2004</tspan></text><text transform="translate(279.14753, 12) translate(-13.60742, 0) translate(13.607421875, 0)" style="text-anchor: middle;"><tspan fill="rgb(116, 116, 116)" style="font-family: Roboto; font-weight: 400; font-stretch: 100%; font-size: 12px;" x="0" dominant-baseline="auto" y="0">2006</tspan></text><text transform="translate(349.75657, 12) translate(-13.60742, 0) translate(13.607421875, 0)" style="text-anchor: middle;"><tspan fill="rgb(116, 116, 116)" style="font-family: Roboto; font-weight: 400; font-stretch: 100%; font-size: 12px;" x="0" dominant-baseline="auto" y="0">2008</tspan></text><text transform="translate(420.46234, 12) translate(-13.60742, 0) translate(13.607421875, 0)" style="text-anchor: middle;"><tspan fill="rgb(116, 116, 116)" style="font-family: Roboto; font-weight: 400; font-stretch: 100%; font-size: 12px;" x="0" dominant-baseline="auto" y="0">2010</tspan></text><text transform="translate(491.07138, 12) translate(-13.60744, 0) translate(13.607437133789062, 0)" style="text-anchor: middle;"><tspan fill="rgb(116, 116, 116)" style="font-family: Roboto; font-weight: 400; font-stretch: 100%; font-size: 12px;" x="0" dominant-baseline="auto" y="0">2012</tspan></text><text transform="translate(561.77715, 12) translate(-13.60742, 0) translate(13.607421875, 0)" style="text-anchor: middle;"><tspan fill="rgb(116, 116, 116)" style="font-family: Roboto; font-weight: 400; font-stretch: 100%; font-size: 12px;" x="0" dominant-baseline="auto" y="0">2014</tspan></text><text transform="translate(632.3862, 12) translate(-13.60742, 0) translate(13.607421875, 0)" style="text-anchor: middle;"><tspan fill="rgb(116, 116, 116)" style="font-family: Roboto; font-weight: 400; font-stretch: 100%; font-size: 12px;" x="0" dominant-baseline="auto" y="0">2016</tspan></text><text transform="translate(703.09196, 12) translate(-13.60742, 0) translate(13.607421875, 0)" style="text-anchor: middle;"><tspan fill="rgb(116, 116, 116)" style="font-family: Roboto; font-weight: 400; font-stretch: 100%; font-size: 12px;" x="0" dominant-baseline="auto" y="0">2018</tspan></text><text transform="translate(773.70101, 12) translate(-13.60742, 0) translate(13.607421875, 0)" style="text-anchor: middle;"><tspan fill="rgb(116, 116, 116)" style="font-family: Roboto; font-weight: 400; font-stretch: 100%; font-size: 12px;" x="0" dominant-baseline="auto" y="0">2020</tspan></text><g id="labels-svg series-svg"><g id="2000-svg" transform="translate(67.12695, 0)"/><g id="2005-svg" transform="translate(243.84301, 0)"/><g id="2010-svg" transform="translate(420.46234, 0)"/><g id="2015-svg" transform="translate(597.08167, 0)"/><g id="2019-svg" transform="translate(738.39648, 0)"/></g></g><g id="x-base-lines-svg grid-x-svg datawrapper-ciu0T-1io9s9d-svg"/></g><g id="axes-svg"/><path d="M96.96039822202647 136.41378204409068L96.96039822202647 459.78125 L214.0095647417704 459.78125 L214.0095647417704 178.04116021144287" style="fill: rgb(106, 62, 0); opacity: 0.15;"/><path d="M96.96039822202647 92.73509027599873L96.96039822202647 136.41378204409074 L214.0095647417704 178.04116021144284 L214.0095647417704 143.95673249332657" style="fill: rgb(139, 83, 0); opacity: 0.15;"/><path d="M96.96039822202647 52.38520407764704L96.96039822202647 92.73509027599872 L214.0095647417704 143.95673249332657 L214.0095647417704 111.29719762254003" style="fill: rgb(139, 83, 0); opacity: 0.15;"/><path d="M96.96039822202647 21.567243871748076L96.96039822202647 52.38520407764702 L214.0095647417704 111.29719762254004 L214.0095647417704 86.28704369806073" style="fill: rgb(224, 136, 0); opacity: 0.15;"/><path d="M96.96039822202647 0L96.96039822202647 21.567243871748076 L214.0095647417704 86.28704369806076 L214.0095647417704 68.36814859279224" style="fill: rgb(251, 176, 95); opacity: 0.15;"/><path d="M273.6764549358233 178.04116021144287L273.6764549358233 459.78125 L390.6288967392488 459.78125 L390.6288967392488 227.21984059931026" style="fill: rgb(106, 62, 0); opacity: 0.15;"/><path d="M273.6764549358233 143.95673249332657L273.6764549358233 178.04116021144284 L390.6288967392488 227.21984059931026 L390.6288967392488 194.74261331103264" style="fill: rgb(139, 83, 0); opacity: 0.15;"/><path d="M273.6764549358233 111.29719762254003L273.6764549358233 143.95673249332657 L390.6288967392488 194.74261331103264 L390.6288967392488 171.7251498607132" style="fill: rgb(139, 83, 0); opacity: 0.15;"/><path d="M273.6764549358233 86.28704369806073L273.6764549358233 111.29719762254004 L390.6288967392488 171.72514986071323 L390.6288967392488 149.1783514815987" style="fill: rgb(224, 136, 0); opacity: 0.15;"/><path d="M273.6764549358233 68.36814859279224L273.6764549358233 86.28704369806076 L390.6288967392488 149.1783514815987 L390.6288967392488 134.17273251525413" style="fill: rgb(251, 176, 95); opacity: 0.15;"/><path d="M450.2957869333017 227.21984059931026L450.2957869333017 459.78125 L567.2482287367271 459.78125 L567.2482287367271 271.23155242382387" style="fill: rgb(106, 62, 0); opacity: 0.15;"/><path d="M450.2957869333017 194.74261331103264L450.2957869333017 227.21984059931026 L567.2482287367271 271.23155242382387 L567.2482287367271 246.9790654885258" style="fill: rgb(139, 83, 0); opacity: 0.15;"/><path d="M450.2957869333017 171.7251498607132L450.2957869333017 194.74261331103264 L567.2482287367271 246.9790654885258 L567.2482287367271 228.884752860424" style="fill: rgb(139, 83, 0); opacity: 0.15;"/><path d="M450.2957869333017 149.1783514815987L450.2957869333017 171.72514986071323 L567.2482287367271 228.884752860424 L567.2482287367271 212.45352687022967" style="fill: rgb(224, 136, 0); opacity: 0.15;"/><path d="M450.2957869333017 134.17273251525413L450.2957869333017 149.1783514815987 L567.2482287367271 212.45352687022964 L567.2482287367271 196.6593342055559" style="fill: rgb(251, 176, 95); opacity: 0.15;"/><path d="M626.9151189307801 271.23155242382387L626.9151189307801 459.78125 L708.5630392779735 459.78125 L708.5630392779735 299.17124478696775" style="fill: rgb(106, 62, 0); opacity: 0.15;"/><path d="M626.9151189307801 246.9790654885258L626.9151189307801 271.23155242382387 L708.5630392779735 299.17124478696775 L708.5630392779735 277.8940445276743" style="fill: rgb(139, 83, 0); opacity: 0.15;"/><path d="M626.9151189307801 228.884752860424L626.9151189307801 246.9790654885258 L708.5630392779735 277.8940445276742 L708.5630392779735 261.8946042028435" style="fill: rgb(139, 83, 0); opacity: 0.15;"/><path d="M626.9151189307801 212.45352687022967L626.9151189307801 228.884752860424 L708.5630392779735 261.8946042028435 L708.5630392779735 247.72512824647953" style="fill: rgb(224, 136, 0); opacity: 0.15;"/><path d="M626.9151189307801 196.6593342055559L626.9151189307801 212.45352687022964 L708.5630392779735 247.7251282464795 L708.5630392779735 232.72321511328798" style="fill: rgb(251, 176, 95); opacity: 0.15;"/></g></g><text transform="translate(93.59375, 72.21875)" id="2000" style="text-anchor: middle;"><tspan fill="rgb(24,24,24)" x="0" y="12" style="font-family: Roboto; font-weight: 700; font-stretch: 100%; font-size: 12px;">303.2</tspan></text><text transform="translate(270.3125, 140.578125)" id="2005" style="text-anchor: middle;"><tspan fill="rgb(24,24,24)" x="0" y="12" style="font-family: Roboto; font-weight: 700; font-stretch: 100%; font-size: 12px;">258.1</tspan></text><text transform="translate(446.9375, 206.390625)" id="2010" style="text-anchor: middle;"><tspan fill="rgb(24,24,24)" x="0" y="12" style="font-family: Roboto; font-weight: 700; font-stretch: 100%; font-size: 12px;">214.7</tspan></text><text transform="translate(623.546875, 268.875)" id="2015" style="text-anchor: middle;"><tspan fill="rgb(24,24,24)" x="0" y="12" style="font-family: Roboto; font-weight: 700; font-stretch: 100%; font-size: 12px;">173.5</tspan></text><text transform="translate(764.859375, 304.9375)" id="2019" style="text-anchor: middle;"><tspan fill="rgb(24,24,24)" x="0" y="12" style="font-family: Roboto; font-weight: 700; font-stretch: 100%; font-size: 12px;">149.7</tspan></text><text transform="translate(0, 36)"><tspan fill="rgb(24,24,24)" x="17" y="12.421875" style="font-family: Roboto; font-weight: 400; font-stretch: 100%; font-size: 12px;">China</tspan></text><text transform="translate(57.484375, 36)"><tspan fill="rgb(24,24,24)" x="17" y="12.421875" style="font-family: Roboto; font-weight: 400; font-stretch: 100%; font-size: 12px;">Germany</tspan></text><text transform="translate(132.421875, 36)"><tspan fill="rgb(24,24,24)" x="17" y="12.421875" style="font-family: Roboto; font-weight: 400; font-stretch: 100%; font-size: 12px;">United</tspan><tspan fill="rgb(24,24,24)" dx="2.984375" style="font-family: Roboto; font-weight: 400; font-stretch: 100%; font-size: 12px;">States</tspan></text><text transform="translate(230.796875, 36)"><tspan fill="rgb(24,24,24)" x="17" y="12.421875" style="font-family: Roboto; font-weight: 400; font-stretch: 100%; font-size: 12px;">France</tspan></text><text transform="translate(293.890625, 36)"><tspan fill="rgb(24,24,24)" x="17" y="12.421875" style="font-family: Roboto; font-weight: 400; font-stretch: 100%; font-size: 12px;">Japan</tspan></text><g id="svelte-12ankjc-svg" transform="translate(761.46875, 287.21875)"><g id="callout-line-svg"><path d="M -11.975828740211934,-115.99999999999999 Q 20.988830465524657,-65.8105200198582 1.574256743287904,-4.724630270028539" stroke="rgb(24,24,24)" style="fill: none; stroke-width: 1; stroke-linejoin: miter; stroke-linecap: butt; stroke: rgb(24, 24, 24);"/><path d="M-4.75,-3.75 L 0,0 L -4.75,3.75" stroke="rgb(24,24,24)" transform="translate(1.57426, -4.72463) rotate(105.95330073112598)" style="fill: none; stroke-width: 1; stroke-linejoin: miter; stroke-linecap: butt; stroke: rgb(24, 24, 24);"/></g></g><text transform="translate(605.46875, 133.21875)"><tspan fill="rgb(24,24,24)" x="0" y="14" style="font-family: Roboto; font-weight: 400; font-stretch: 100%; font-size: 14px;">Deaths from air pollution have decreased </tspan><tspan fill="rgb(24,24,24)" x="0" y="30.796875" style="font-family: Roboto; font-weight: 400; font-stretch: 100%; font-size: 14px;">by two times over the past two decades</tspan></text><rect width="14" height="14" transform="translate(0, 36.828125)" fill="rgb(106,62,0)" style="fill: rgb(106, 62, 0);"/><rect width="14" height="14" transform="translate(57.484375, 36.828125)" fill="rgb(139,83,0)" style="fill: rgb(139, 83, 0);"/><rect width="14" height="14" transform="translate(132.421875, 36.828125)" fill="rgb(139,83,0)" style="fill: rgb(139, 83, 0);"/><rect width="14" height="14" transform="translate(230.796875, 36.828125)" fill="rgb(224,136,0)" style="fill: rgb(224, 136, 0);"/><rect width="14" height="14" transform="translate(293.890625, 36.828125)" fill="rgb(251,176,95)" style="fill: rgb(251, 176, 95);"/></g><g id="container-svg container-footer-svg datawrapper-ciu0T-13ih6fk-svg"><text transform="translate(0, 591)"><tspan fill="rgb(101,101,101)" x="0" y="12" style="font-family: Roboto; font-weight: 400; font-stretch: 100%; font-style: italic; font-size: 12px;">Deaths that are from all causes attributed to air pollution per 100,000 people, in both sexes aged age-standardized</tspan></text><text transform="translate(0, 610)"><tspan fill="rgb(136,136,136)" x="0" y="11" style="font-family: Roboto; font-weight: 400; font-stretch: 100%; font-size: 11px;">Chart:</tspan><tspan fill="rgb(136,136,136)" dx="2.734375" style="font-family: Roboto; font-weight: 400; font-stretch: 100%; font-size: 11px;">Pranideep</tspan><tspan fill="rgb(136,136,136)" dx="2.739" style="font-family: Roboto; font-weight: 400; font-stretch: 100%; font-size: 11px;">•</tspan><tspan fill="rgb(136,136,136)" dx="2.739" style="font-family: Roboto; font-weight: 400; font-stretch: 100%; font-size: 11px;">Source:</tspan><tspan fill="rgb(136,136,136)" dx="2.734375" style="font-family: Roboto; font-weight: 400; font-stretch: 100%; font-size: 11px;">IHME, Global Burden of Disease (2019)</tspan><tspan fill="rgb(136,136,136)" dx="2.739" style="font-family: Roboto; font-weight: 400; font-stretch: 100%; font-size: 11px;">•</tspan><tspan fill="rgb(136,136,136)" dx="2.739" style="font-family: Roboto; font-weight: 400; font-stretch: 100%; font-size: 11px;">Created with</tspan><tspan fill="rgb(136,136,136)" dx="2.734375" style="font-family: Roboto; font-weight: 400; font-stretch: 100%; font-size: 11px;">Datawrapper</tspan></text></g></g></g></svg>