<svg xmlns="http://www.w3.org/2000/svg" xmlns:xlink="http://www.w3.org/1999/xlink" id="exportSvg" width="788" height="464"><defs/><rect width="788" height="464" transform="translate(0, 0)" fill="rgb(255, 255, 255)" style="fill: rgb(255, 255, 255);"/><g><g id="__svelte-dw-svg" clip-path="url(#rect-mask-fhyyfHc0arfDHoBiE4nEH)"><clipPath id="rect-mask-fhyyfHc0arfDHoBiE4nEH"><rect x="0" y="0" width="788" height="464"/></clipPath><g id="container-svg container-header-svg datawrapper-ElhZ8-1utllut-svg"><text transform="translate(0, 0)"><tspan fill="rgb(0,0,0)" x="0" y="22" style="font-family: Roboto; font-weight: 700; font-stretch: 100%; font-size: 22px;">...Yet, amidst this rise in ownership, a beacon of hope shines through: CO2</tspan><tspan fill="rgb(0,0,0)" x="0" y="47" style="font-family: Roboto; font-weight: 700; font-stretch: 100%; font-size: 22px;">emissions from transportation are on a decline, marking a pivotal</tspan><tspan fill="rgb(0,0,0)" x="0" y="72" style="font-family: Roboto; font-weight: 700; font-stretch: 100%; font-size: 22px;">environmental shift...</tspan></text><text transform="translate(0, 85)"><tspan fill="rgb(24,24,24)" x="0" y="14" style="font-family: Roboto; font-weight: 400; font-stretch: 100%; font-size: 14px;">In billion metric tons</tspan></text></g><g id="chart-svg"><g id="svg-main-svg" clip-path="url(#rect-mask-iU5eWEFWsAXjfU2QPlKuA)" transform="translate(0, 112)"><clipPath id="rect-mask-iU5eWEFWsAXjfU2QPlKuA"><rect x="0" y="0" width="788" height="300"/></clipPath><g id="container-svg" transform="translate(20.21875, 19)"><g id="grid-svg below-svg"><g id="y-grid-lines-svg grid-y-svg datawrapper-ElhZ8-1fn7900-svg"><line x1="0" x2="767.28125" y1="0" y2="0" transform="translate(0, 172.50608)" style="fill: none; stroke-width: 1; stroke-linejoin: miter; stroke-linecap: butt; stroke: rgb(231, 231, 231);"/><line x1="0" x2="767.28125" y1="0" y2="0" transform="translate(0, 89.01216)" style="fill: none; stroke-width: 1; stroke-linejoin: miter; stroke-linecap: butt; stroke: rgb(231, 231, 231);"/><line x1="0" x2="767.28125" y1="0" y2="0" transform="translate(0, 5.51824)" style="fill: none; stroke-width: 1; stroke-linejoin: miter; stroke-linecap: butt; stroke: rgb(231, 231, 231);"/></g></g><g id="columns-svg"><rect width="21.565" height="250.90489204252384" transform="translate(15.98503, 0) translate(-10.782507299152977, 5.095107957476159)" fill="rgb(145,105,191)" id="2000-0" style="fill: rgb(145, 105, 191);"/><rect width="21.565" height="246.63017029987526" transform="translate(49.47481, 0) translate(-10.782507299152977, 9.36982970012474)" fill="rgb(145,105,191)" id="2001-1" style="fill: rgb(145, 105, 191);"/><rect width="21.565" height="248.24028376191643" transform="translate(82.87309, 0) translate(-10.782507299152977, 7.75971623808357)" fill="rgb(145,105,191)" id="2002-2" style="fill: rgb(145, 105, 191);"/><rect width="21.565" height="250.90529698803834" transform="translate(116.27137, 0) translate(-10.782507299152977, 5.094703011961656)" fill="rgb(145,105,191)" id="2003-3" style="fill: rgb(145, 105, 191);"/><rect width="21.565" height="255.18476536006835" transform="translate(149.66965, 0) translate(-10.782507299152977, 0.8152346399316457)" fill="rgb(145,105,191)" id="2004-4" style="fill: rgb(145, 105, 191);"/><rect width="21.565" height="256" transform="translate(183.15944, 0) translate(-10.782507299152977, 0)" fill="rgb(145,105,191)" id="2005-5" style="fill: rgb(145, 105, 191);"/><rect width="21.565" height="252.68124190031511" transform="translate(216.55772, 0) translate(-10.782507299152977, 3.318758099684885)" fill="rgb(145,105,191)" id="2006-6" style="fill: rgb(145, 105, 191);"/><rect width="21.565" height="255.9140012618671" transform="translate(249.95599, 0) translate(-10.782507299152977, 0.0859987381329006)" fill="rgb(145,105,191)" id="2007-7" style="fill: rgb(145, 105, 191);"/><rect width="21.565" height="246.93822111962413" transform="translate(283.35428, 0) translate(-10.782507299152977, 9.061778880375869)" fill="rgb(145,105,191)" id="2008-8" style="fill: rgb(145, 105, 191);"/><rect width="21.565" height="228.803629637276" transform="translate(316.84406, 0) translate(-10.782507299152977, 27.196370362723997)" fill="rgb(145,105,191)" id="2009-9" style="fill: rgb(145, 105, 191);"/><rect width="21.565" height="237.1108489097602" transform="translate(350.24234, 0) translate(-10.782507299152977, 18.889151090239807)" fill="rgb(145,105,191)" id="2010-10" style="fill: rgb(145, 105, 191);"/><rect width="21.565" height="231.5334842420717" transform="translate(383.64063, 0) translate(-10.782507299152977, 24.466515757928306)" fill="rgb(145,105,191)" id="2011-11" style="fill: rgb(145, 105, 191);"/><rect width="21.565" height="223.09934586100903" transform="translate(417.03891, 0) translate(-10.782507299152977, 32.90065413899097)" fill="rgb(145,105,191)" id="2012-12" style="fill: rgb(145, 105, 191);"/><rect width="21.565" height="228.77988396628086" transform="translate(450.52869, 0) translate(-10.782507299152977, 27.220116033719137)" fill="rgb(145,105,191)" id="2013-13" style="fill: rgb(145, 105, 191);"/><rect width="21.565" height="230.8056259899615" transform="translate(483.92697, 0) translate(-10.782507299152977, 25.1943740100385)" fill="rgb(145,105,191)" id="2014-14" style="fill: rgb(145, 105, 191);"/><rect width="21.565" height="224.45140466290715" transform="translate(517.32526, 0) translate(-10.782507299152977, 31.54859533709285)" fill="rgb(145,105,191)" id="2015-15" style="fill: rgb(145, 105, 191);"/><rect width="21.565" height="219.29394344558864" transform="translate(550.72351, 0) translate(-10.782507299152977, 36.70605655441136)" fill="rgb(145,105,191)" id="2016-16" style="fill: rgb(145, 105, 191);"/><rect width="21.565" height="217.59191987584194" transform="translate(584.21332, 0) translate(-10.782507299152977, 38.40808012415806)" fill="rgb(145,105,191)" id="2017-17" style="fill: rgb(145, 105, 191);"/><rect width="21.565" height="224.50667763828966" transform="translate(617.61157, 0) translate(-10.782507299152977, 31.49332236171034)" fill="rgb(145,105,191)" id="2018-18" style="fill: rgb(145, 105, 191);"/><rect width="21.565" height="219.67855819045192" transform="translate(651.00989, 0) translate(-10.782507299152977, 36.32144180954808)" fill="rgb(145,105,191)" id="2019-19" style="fill: rgb(145, 105, 191);"/><rect width="21.565" height="196.82138775049603" transform="translate(684.40814, 0) translate(-10.782507299152977, 59.17861224950397)" fill="rgb(145,105,191)" id="2020-20" style="fill: rgb(145, 105, 191);"/><rect width="21.565" height="210.07959612425134" transform="translate(717.89795, 0) translate(-10.782507299152977, 45.92040387574866)" fill="rgb(145,105,191)" id="2021-21" style="fill: rgb(145, 105, 191);"/><rect width="21.565" height="211.12705240531798" transform="translate(751.2962, 0) translate(-10.782507299152977, 44.87294759468202)" fill="rgb(145,105,191)" id="2022-22" style="fill: rgb(145, 105, 191);"/></g><g id="overlays-svg"/><g id="grid-svg above-svg"><g id="y-tick-labels-svg grid-y-svg number-axis-svg datawrapper-ElhZ8-1p0pqj9-svg" transform="translate(-5, 0)"><text transform="translate(0, 176.50608) translate(-14.21875, 0) translate(14.21875, 0)" style="text-anchor: end;"><tspan fill="rgb(162, 162, 162)" style="font-family: Roboto; font-weight: 400; font-stretch: 100%; font-size: 12px;" x="0" dominant-baseline="auto" y="0">2B</tspan></text><text transform="translate(0, 93.01216) translate(-14.21875, 0) translate(14.21875, 0)" style="text-anchor: end;"><tspan fill="rgb(162, 162, 162)" style="font-family: Roboto; font-weight: 400; font-stretch: 100%; font-size: 12px;" x="0" dominant-baseline="auto" y="0">4B</tspan></text><text transform="translate(0, 9.51824) translate(-14.21875, 0) translate(14.21875, 0)" style="text-anchor: end;"><tspan fill="rgb(162, 162, 162)" style="font-family: Roboto; font-weight: 400; font-stretch: 100%; font-size: 12px;" x="0" dominant-baseline="auto" y="0">6B</tspan></text></g><g id="y-base-lines-svg grid-y-svg datawrapper-ElhZ8-1io9s9d-svg"><line x1="767.28125" x2="0" y1="0" y2="0" transform="translate(0, 256)" style="fill: none; stroke-width: 1; stroke-linejoin: miter; stroke-linecap: square; stroke: rgb(24, 24, 24);"/></g><g id="x-tick-lines-svg grid-x-svg datawrapper-ElhZ8-1jidnk8-svg" transform="translate(0, 256)"><line x1="0" x2="0" y1="5" y2="0" transform="translate(15.98503, 0)" style="fill: none; stroke-width: 1; stroke-linejoin: miter; stroke-linecap: butt; stroke: rgb(24, 24, 24);"/><line x1="0" x2="0" y1="5" y2="0" transform="translate(82.87309, 0)" style="fill: none; stroke-width: 1; stroke-linejoin: miter; stroke-linecap: butt; stroke: rgb(24, 24, 24);"/><line x1="0" x2="0" y1="5" y2="0" transform="translate(149.66965, 0)" style="fill: none; stroke-width: 1; stroke-linejoin: miter; stroke-linecap: butt; stroke: rgb(24, 24, 24);"/><line x1="0" x2="0" y1="5" y2="0" transform="translate(216.55772, 0)" style="fill: none; stroke-width: 1; stroke-linejoin: miter; stroke-linecap: butt; stroke: rgb(24, 24, 24);"/><line x1="0" x2="0" y1="5" y2="0" transform="translate(283.35428, 0)" style="fill: none; stroke-width: 1; stroke-linejoin: miter; stroke-linecap: butt; stroke: rgb(24, 24, 24);"/><line x1="0" x2="0" y1="5" y2="0" transform="translate(350.24234, 0)" style="fill: none; stroke-width: 1; stroke-linejoin: miter; stroke-linecap: butt; stroke: rgb(24, 24, 24);"/><line x1="0" x2="0" y1="5" y2="0" transform="translate(417.03891, 0)" style="fill: none; stroke-width: 1; stroke-linejoin: miter; stroke-linecap: butt; stroke: rgb(24, 24, 24);"/><line x1="0" x2="0" y1="5" y2="0" transform="translate(483.92697, 0)" style="fill: none; stroke-width: 1; stroke-linejoin: miter; stroke-linecap: butt; stroke: rgb(24, 24, 24);"/><line x1="0" x2="0" y1="5" y2="0" transform="translate(550.72353, 0)" style="fill: none; stroke-width: 1; stroke-linejoin: miter; stroke-linecap: butt; stroke: rgb(24, 24, 24);"/><line x1="0" x2="0" y1="5" y2="0" transform="translate(617.6116, 0)" style="fill: none; stroke-width: 1; stroke-linejoin: miter; stroke-linecap: butt; stroke: rgb(24, 24, 24);"/><line x1="0" x2="0" y1="5" y2="0" transform="translate(684.40816, 0)" style="fill: none; stroke-width: 1; stroke-linejoin: miter; stroke-linecap: butt; stroke: rgb(24, 24, 24);"/><line x1="0" x2="0" y1="5" y2="0" transform="translate(751.29622, 0)" style="fill: none; stroke-width: 1; stroke-linejoin: miter; stroke-linecap: butt; stroke: rgb(24, 24, 24);"/></g><g id="x-tick-labels-svg grid-x-svg date-axis-svg datawrapper-ElhZ8-63wp0p-svg" transform="translate(0, 266)"><text transform="translate(15.98503, 12) translate(-13.60742, 0) translate(13.607421875, 0)" style="text-anchor: middle;"><tspan fill="rgb(116, 116, 116)" style="font-family: Roboto; font-weight: 400; font-stretch: 100%; font-size: 12px;" x="0" dominant-baseline="auto" y="0">2000</tspan></text><text transform="translate(82.87309, 12) translate(-13.60742, 0) translate(13.607421875, 0)" style="text-anchor: middle;"><tspan fill="rgb(116, 116, 116)" style="font-family: Roboto; font-weight: 400; font-stretch: 100%; font-size: 12px;" x="0" dominant-baseline="auto" y="0">2002</tspan></text><text transform="translate(149.66965, 12) translate(-13.60742, 0) translate(13.607421875, 0)" style="text-anchor: middle;"><tspan fill="rgb(116, 116, 116)" style="font-family: Roboto; font-weight: 400; font-stretch: 100%; font-size: 12px;" x="0" dominant-baseline="auto" y="0">2004</tspan></text><text transform="translate(216.55772, 12) translate(-13.60742, 0) translate(13.607421875, 0)" style="text-anchor: middle;"><tspan fill="rgb(116, 116, 116)" style="font-family: Roboto; font-weight: 400; font-stretch: 100%; font-size: 12px;" x="0" dominant-baseline="auto" y="0">2006</tspan></text><text transform="translate(283.35428, 12) translate(-13.60742, 0) translate(13.607421875, 0)" style="text-anchor: middle;"><tspan fill="rgb(116, 116, 116)" style="font-family: Roboto; font-weight: 400; font-stretch: 100%; font-size: 12px;" x="0" dominant-baseline="auto" y="0">2008</tspan></text><text transform="translate(350.24234, 12) translate(-13.60742, 0) translate(13.607421875, 0)" style="text-anchor: middle;"><tspan fill="rgb(116, 116, 116)" style="font-family: Roboto; font-weight: 400; font-stretch: 100%; font-size: 12px;" x="0" dominant-baseline="auto" y="0">2010</tspan></text><text transform="translate(417.03891, 12) translate(-13.60742, 0) translate(13.607421875, 0)" style="text-anchor: middle;"><tspan fill="rgb(116, 116, 116)" style="font-family: Roboto; font-weight: 400; font-stretch: 100%; font-size: 12px;" x="0" dominant-baseline="auto" y="0">2012</tspan></text><text transform="translate(483.92697, 12) translate(-13.60744, 0) translate(13.607437133789062, 0)" style="text-anchor: middle;"><tspan fill="rgb(116, 116, 116)" style="font-family: Roboto; font-weight: 400; font-stretch: 100%; font-size: 12px;" x="0" dominant-baseline="auto" y="0">2014</tspan></text><text transform="translate(550.72353, 12) translate(-13.60742, 0) translate(13.607421875, 0)" style="text-anchor: middle;"><tspan fill="rgb(116, 116, 116)" style="font-family: Roboto; font-weight: 400; font-stretch: 100%; font-size: 12px;" x="0" dominant-baseline="auto" y="0">2016</tspan></text><text transform="translate(617.6116, 12) translate(-13.60742, 0) translate(13.607421875, 0)" style="text-anchor: middle;"><tspan fill="rgb(116, 116, 116)" style="font-family: Roboto; font-weight: 400; font-stretch: 100%; font-size: 12px;" x="0" dominant-baseline="auto" y="0">2018</tspan></text><text transform="translate(684.40816, 12) translate(-13.60742, 0) translate(13.607421875, 0)" style="text-anchor: middle;"><tspan fill="rgb(116, 116, 116)" style="font-family: Roboto; font-weight: 400; font-stretch: 100%; font-size: 12px;" x="0" dominant-baseline="auto" y="0">2020</tspan></text><text transform="translate(751.29622, 12) translate(-13.60742, 0) translate(13.607421875, 0)" style="text-anchor: middle;"><tspan fill="rgb(116, 116, 116)" style="font-family: Roboto; font-weight: 400; font-stretch: 100%; font-size: 12px;" x="0" dominant-baseline="auto" y="0">2022</tspan></text><g id="labels-svg series-svg"><g id="2000-0-svg" transform="translate(15.98503, 0)"/><g id="2001-1-svg" transform="translate(49.47481, 0)"/><g id="2002-2-svg" transform="translate(82.87309, 0)"/><g id="2003-3-svg" transform="translate(116.27137, 0)"/><g id="2004-4-svg" transform="translate(149.66965, 0)"/><g id="2005-5-svg" transform="translate(183.15944, 0)"/><g id="2006-6-svg" transform="translate(216.55772, 0)"/><g id="2007-7-svg" transform="translate(249.956, 0)"/><g id="2008-8-svg" transform="translate(283.35428, 0)"/><g id="2009-9-svg" transform="translate(316.84406, 0)"/><g id="2010-10-svg" transform="translate(350.24234, 0)"/><g id="2011-11-svg" transform="translate(383.64063, 0)"/><g id="2012-12-svg" transform="translate(417.03891, 0)"/><g id="2013-13-svg" transform="translate(450.52869, 0)"/><g id="2014-14-svg" transform="translate(483.92697, 0)"/><g id="2015-15-svg" transform="translate(517.32525, 0)"/><g id="2016-16-svg" transform="translate(550.72353, 0)"/><g id="2017-17-svg" transform="translate(584.21332, 0)"/><g id="2018-18-svg" transform="translate(617.6116, 0)"/><g id="2019-19-svg" transform="translate(651.00988, 0)"/><g id="2020-20-svg" transform="translate(684.40816, 0)"/><g id="2021-21-svg" transform="translate(717.89794, 0)"/><g id="2022-22-svg" transform="translate(751.29622, 0)"/></g></g><g id="x-base-lines-svg grid-x-svg datawrapper-ElhZ8-1io9s9d-svg"/></g><g id="axes-svg"/></g></g><g id="svelte-12ankjc-svg" transform="translate(706.21875, 190)"><g id="callout-line-svg"><path d="M -45.56261788295641,-51 Q -18.060054096553905,-36.27449391229589 -2.1976793562046937,-4.59280693073461" stroke="rgb(24,24,24)" style="fill: none; stroke-width: 1; stroke-linejoin: miter; stroke-linecap: butt; stroke: rgb(24, 24, 24);"/><path d="M-4.75,-3.75 L 0,0 L -4.75,3.75" stroke="rgb(24,24,24)" transform="translate(-2.19768, -4.59281) rotate(61.267156670638265)" style="fill: none; stroke-width: 1; stroke-linejoin: miter; stroke-linecap: butt; stroke: rgb(24, 24, 24);"/></g></g><text transform="translate(513.21875, 118)"><tspan fill="rgb(24,24,24)" x="0" y="14" style="font-family: Roboto; font-weight: 400; font-stretch: 100%; font-size: 14px;">Artificially Low Due to Pendamic</tspan></text></g><g id="container-svg container-footer-svg datawrapper-ElhZ8-13ih6fk-svg"><text transform="translate(0, 432)"><tspan fill="rgb(101,101,101)" x="0" y="12" style="font-family: Roboto; font-weight: 400; font-stretch: 100%; font-style: italic; font-size: 12px;">Carbon dioxide emissions from energy consumption in the transportation sector in the U.S. from 2002 to 2022</tspan></text><text transform="translate(0, 451)"><tspan fill="rgb(136,136,136)" x="0" y="11" style="font-family: Roboto; font-weight: 400; font-stretch: 100%; font-size: 11px;">Chart:</tspan><tspan fill="rgb(136,136,136)" dx="2.734375" style="font-family: Roboto; font-weight: 400; font-stretch: 100%; font-size: 11px;">Pranideep</tspan><tspan fill="rgb(136,136,136)" dx="2.739" style="font-family: Roboto; font-weight: 400; font-stretch: 100%; font-size: 11px;">•</tspan><tspan fill="rgb(136,136,136)" dx="2.739" style="font-family: Roboto; font-weight: 400; font-stretch: 100%; font-size: 11px;">Source:</tspan><tspan fill="rgb(136,136,136)" dx="2.734375" style="font-family: Roboto; font-weight: 400; font-stretch: 100%; font-size: 11px;">Global Carbon Budget 2023</tspan><tspan fill="rgb(136,136,136)" dx="2.739" style="font-family: Roboto; font-weight: 400; font-stretch: 100%; font-size: 11px;">•</tspan><tspan fill="rgb(136,136,136)" dx="2.739" style="font-family: Roboto; font-weight: 400; font-stretch: 100%; font-size: 11px;">Created with</tspan><tspan fill="rgb(136,136,136)" dx="2.734375" style="font-family: Roboto; font-weight: 400; font-stretch: 100%; font-size: 11px;">Datawrapper</tspan></text></g></g></g></svg>