<svg xmlns="http://www.w3.org/2000/svg" xmlns:xlink="http://www.w3.org/1999/xlink" id="exportSvg" width="600" height="497"><defs/><rect width="600" height="497" transform="translate(0, 0)" fill="rgb(255, 255, 255)" style="fill: rgb(255, 255, 255);"/><g><g id="__svelte-dw-svg" clip-path="url(#rect-mask-aHTo14GliPSUX4Xw7i2jz)"><clipPath id="rect-mask-aHTo14GliPSUX4Xw7i2jz"><rect x="0" y="0" width="600" height="497"/></clipPath><g id="container-svg container-header-svg datawrapper-lzw9R-1utllut-svg"><text transform="translate(0, 0)"><tspan fill="rgb(0,0,0)" x="0" y="22" style="font-family: Roboto; font-weight: 700; font-stretch: 100%; font-size: 22px;">...Moreover, Driven by continuous advancements, progress</tspan><tspan fill="rgb(0,0,0)" x="0" y="47" style="font-family: Roboto; font-weight: 700; font-stretch: 100%; font-size: 22px;">ignites: witness the acceleration in miles per gallon</tspan><tspan fill="rgb(0,0,0)" x="0" y="72" style="font-family: Roboto; font-weight: 700; font-stretch: 100%; font-size: 22px;">efficiency over time...</tspan></text></g><g id="chart-svg"><g id="svg-main-svg" clip-path="url(#rect-mask-H81XmSQt8suiFYua1eNrz)" transform="translate(0, 85)"><clipPath id="rect-mask-H81XmSQt8suiFYua1eNrz"><rect x="0" y="0" width="600" height="333"/></clipPath><g id="group-svg" transform="translate(0, 27)"><g id="x-grid-svg"/><g id="y-grid-svg"><g id="y-grid-lines-svg grid-y-svg datawrapper-lzw9R-1fn7900-svg"><line x1="0" x2="598" y1="0" y2="0" transform="translate(0, 72.07807)" style="fill: none; stroke-width: 1; stroke-linejoin: miter; stroke-linecap: butt; stroke: rgb(231, 231, 231);"/><line x1="0" x2="598" y1="0" y2="0" transform="translate(0, 176.53903)" style="fill: none; stroke-width: 1; stroke-linejoin: miter; stroke-linecap: butt; stroke: rgb(231, 231, 231);"/></g></g><g id="areas-svg"><path d="M58.867313916186234,281L81.9689835047613,281L105.00753377752056,281L128.04608405027983,281L151.08463432303913,281L174.18630391161417,281L197.22485418437347,281L220.26340445713274,281L243.30195472989203,281L266.4036243184671,281L289.4421745912263,281L312.48072486398564,281L335.51927513674497,281L358.62094472531993,281L381.65949499807925,281L404.6980452708386,281L427.73659554359784,281L450.8382651321728,281L473.8768154049322,281L496.91536567769145,281L519.9539159504507,281L543.0555855390257,281L566.094135811785,281L589.1326860845443,281L589.1326860845443,0L566.094135811785,9.401486988847584L543.0555855390257,15.669144981412627L519.9539159504507,15.669144981412627L496.91536567769145,20.89219330855019L473.8768154049322,18.802973977695135L450.8382651321728,20.89219330855019L427.73659554359784,22.981412639405185L404.6980452708386,24.026022304832697L381.65949499807925,29.24907063197023L358.62094472531993,28.204460966542747L335.51927513674497,34.472118959107796L312.48072486398564,47.007434944237914L289.4421745912263,44.918215613382856L266.4036243184671,47.007434944237914L243.30195472989203,61.63197026022303L220.26340445713274,65.81040892193305L197.22485418437347,71.03345724907061L174.18630391161417,73.12267657992567L151.08463432303913,79.39033457249069L128.04608405027983,76.25650557620814L105.00753377752056,78.3457249070632L81.9689835047613,76.25650557620814L58.867313916186234,74.16728624535315Z" id="Avg. Fuel Economy (mpg)" style="fill: rgb(27, 105, 89); opacity: 0.45;"/></g><g id="area-separator-lines-svg"/><g id="x-grid-svg"><g id="x-tick-labels-svg date-axis-svg grid-x-svg datawrapper-lzw9R-63wp0p-svg" transform="translate(0, 291)"><text transform="translate(58.86731, 12) translate(-13.60742, 0) translate(13.607419967651367, 0)" style="text-anchor: middle;"><tspan fill="rgb(116, 116, 116)" style="font-family: Roboto; font-weight: 400; font-stretch: 100%; font-size: 12px;" x="0" dominant-baseline="auto" y="0">2000</tspan></text><text transform="translate(174.1863, 12) translate(-7.91504, 0) translate(7.9150390625, 0)" style="text-anchor: middle;"><tspan fill="rgb(116, 116, 116)" style="font-family: Roboto; font-weight: 400; font-stretch: 100%; font-size: 12px;" x="0" dominant-baseline="auto" y="0">'05</tspan></text><text transform="translate(289.44217, 12) translate(-7.91504, 0) translate(7.9150390625, 0)" style="text-anchor: middle;"><tspan fill="rgb(116, 116, 116)" style="font-family: Roboto; font-weight: 400; font-stretch: 100%; font-size: 12px;" x="0" dominant-baseline="auto" y="0">'10</tspan></text><text transform="translate(404.69805, 12) translate(-7.91504, 0) translate(7.9150390625, 0)" style="text-anchor: middle;"><tspan fill="rgb(116, 116, 116)" style="font-family: Roboto; font-weight: 400; font-stretch: 100%; font-size: 12px;" x="0" dominant-baseline="auto" y="0">'15</tspan></text><text transform="translate(519.95392, 12) translate(-7.91504, 0) translate(7.9150390625, 0)" style="text-anchor: middle;"><tspan fill="rgb(116, 116, 116)" style="font-family: Roboto; font-weight: 400; font-stretch: 100%; font-size: 12px;" x="0" dominant-baseline="auto" y="0">'20</tspan></text></g><g id="x-tick-lines-svg grid-x-svg datawrapper-lzw9R-1jidnk8-svg" transform="translate(0, 281)"><line x1="0" x2="0" y1="5" y2="0" transform="translate(58.86731, 0)" style="fill: none; stroke-width: 1; stroke-linejoin: miter; stroke-linecap: butt; stroke: rgb(24, 24, 24);"/><line x1="0" x2="0" y1="5" y2="0" transform="translate(174.1863, 0)" style="fill: none; stroke-width: 1; stroke-linejoin: miter; stroke-linecap: butt; stroke: rgb(24, 24, 24);"/><line x1="0" x2="0" y1="5" y2="0" transform="translate(289.44217, 0)" style="fill: none; stroke-width: 1; stroke-linejoin: miter; stroke-linecap: butt; stroke: rgb(24, 24, 24);"/><line x1="0" x2="0" y1="5" y2="0" transform="translate(404.69805, 0)" style="fill: none; stroke-width: 1; stroke-linejoin: miter; stroke-linecap: butt; stroke: rgb(24, 24, 24);"/><line x1="0" x2="0" y1="5" y2="0" transform="translate(519.95392, 0)" style="fill: none; stroke-width: 1; stroke-linejoin: miter; stroke-linecap: butt; stroke: rgb(24, 24, 24);"/></g></g><g id="y-grid-svg"><g id="y-tick-labels-svg number-axis-svg grid-y-svg datawrapper-lzw9R-5tsm27-svg"><text transform="translate(0, 276) translate(0, 0)"><tspan fill="rgb(162, 162, 162)" style="font-family: Roboto; font-weight: 400; font-stretch: 100%; font-size: 12px;" x="0" dominant-baseline="auto" y="0">0</tspan></text><text transform="translate(0, 171.53903) translate(0, 0)"><tspan fill="rgb(162, 162, 162)" style="font-family: Roboto; font-weight: 400; font-stretch: 100%; font-size: 12px;" x="0" dominant-baseline="auto" y="0">10</tspan></text><text transform="translate(0, 67.07807) translate(0, 0)"><tspan fill="rgb(162, 162, 162)" style="font-family: Roboto; font-weight: 400; font-stretch: 100%; font-size: 12px;" x="0" dominant-baseline="auto" y="0">20</tspan></text></g><g id="y-base-lines-svg grid-y-svg datawrapper-lzw9R-1io9s9d-svg"><line x1="598" x2="0" y1="0" y2="0" transform="translate(0, 281)" style="fill: none; stroke-width: 1; stroke-linejoin: miter; stroke-linecap: square; stroke: rgb(24, 24, 24);"/></g></g></g></g><text transform="translate(0, 85.78125)"><tspan fill="rgb(24,24,24)" x="17" y="12.421875" style="font-family: Roboto; font-weight: 400; font-stretch: 100%; font-size: 12px;">Avg.</tspan><tspan fill="rgb(24,24,24)" dx="2.984375" style="font-family: Roboto; font-weight: 400; font-stretch: 100%; font-size: 12px;">Fuel Economy (mpg)</tspan></text><g id="tooltip-layer-svg" clip-path="url(#rect-mask-Jo4-j9DWpo57fWhIPgER6)" transform="translate(0, 85)"><clipPath id="rect-mask-Jo4-j9DWpo57fWhIPgER6"><rect x="0" y="0" width="600" height="333"/></clipPath><g id="group-svg" transform="translate(0, 27)"/></g><rect width="14" height="14" transform="translate(0, 86.609375)" fill="rgba(27,105,89,0.45)" style="fill: rgb(27, 105, 89); fill-opacity: 0.45;"/></g><g id="container-svg container-footer-svg datawrapper-lzw9R-13ih6fk-svg"><text transform="translate(0, 438)"><tspan fill="rgb(101,101,101)" x="0" y="12" style="font-family: Roboto; font-weight: 400; font-stretch: 100%; font-style: italic; font-size: 12px;">The data used in this series of reports include vans, SUVs, and trucks with gross vehicle weight ratings (GVWR) up</tspan><tspan fill="rgb(101,101,101)" x="0" y="26" style="font-family: Roboto; font-weight: 400; font-stretch: 100%; font-style: italic; font-size: 12px;">to 8,500 lbs. EPA adjusted the fuel economy figures to reflect real road conditions rather than lab conditions</tspan></text><text transform="translate(0, 471)"><tspan fill="rgb(136,136,136)" x="0" y="11" style="font-family: Roboto; font-weight: 400; font-stretch: 100%; font-size: 11px;">Chart:</tspan><tspan fill="rgb(136,136,136)" dx="2.734375" style="font-family: Roboto; font-weight: 400; font-stretch: 100%; font-size: 11px;">Pranideep</tspan><tspan fill="rgb(136,136,136)" dx="2.739" style="font-family: Roboto; font-weight: 400; font-stretch: 100%; font-size: 11px;">•</tspan><tspan fill="rgb(136,136,136)" dx="2.739" style="font-family: Roboto; font-weight: 400; font-stretch: 100%; font-size: 11px;">Source:</tspan><tspan fill="rgb(136,136,136)" dx="2.734375" style="font-family: Roboto; font-weight: 400; font-stretch: 100%; font-size: 11px;">U.S. Environmental Protection Agency (EPA), Automotive Trends Report (2023),</tspan><tspan fill="rgb(136,136,136)" dx="5.473375" style="font-family: Roboto; font-weight: 400; font-stretch: 100%; font-size: 11px;">•</tspan><tspan fill="rgb(136,136,136)" dx="2.739" style="font-family: Roboto; font-weight: 400; font-stretch: 100%; font-size: 11px;">Created with</tspan><tspan fill="rgb(136,136,136)" x="0" y="24" style="font-family: Roboto; font-weight: 400; font-stretch: 100%; font-size: 11px;">Datawrapper</tspan></text></g></g></g></svg>